<?xml version="1.0" encoding="UTF-8"?><svg id="Ebene_2" xmlns="http://www.w3.org/2000/svg" viewBox="-76.8 -76.8 1113.6 873.6"><defs><style>.cls-1{fill:#fff;}</style></defs><g id="geometrisch"><rect class="cls-1" x="175" y="289" width="30" height="166"/><circle class="cls-1" cx="190" cy="253.85" r="20"/><path class="cls-1" d="M70,287c-14.87,0-28.65,4.67-40,12.6v-84.6H0v240h30v-98c0-22.06,17.94-40,40-40s40,17.94,40,40v98h30v-98c0-38.6-31.4-70-70-70Z"/><path class="cls-1" d="M819.06,317c-24.21,0-44.74,16.01-51.58,38h103.16c-6.83-21.99-27.37-38-51.58-38Z"/><path class="cls-1" d="M600,0C401.72,0,240,161.72,240,360s161.72,360,360,360,360-161.72,360-360S798.27,0,600,0ZM358.02,455h-30v-240h30v240ZM557.91,455h-84c-46.32,0-84-37.68-84-84s37.68-84,84-84,84,37.68,84,84v84ZM715.81,420.22c-4.05,20.8-21.01,34.78-42.21,34.78h-83.6v-30h83.6c9.94,0,12.28-8.05,12.76-10.52.48-2.47,1.33-10.81-7.88-14.53l-69.41-28.09c-19.65-7.95-30.13-27.27-26.08-48.08,4.05-20.81,21.01-34.78,42.21-34.78h81.8v30h-81.8c-9.94,0-12.28,8.05-12.76,10.52-.48,2.47-1.33,10.81,7.88,14.53l69.41,28.09c19.65,7.95,30.13,27.27,26.08,48.08ZM819.06,425h81.81v30h-81.81c-46.32,0-84-37.68-84-84s37.68-84,84-84,84,37.68,84,84c0,4.74-.39,9.41-1.16,14h-134.99c6.18,23.01,27.22,40,52.15,40Z"/><path class="cls-1" d="M473.91,317c-29.78,0-54,24.22-54,54s24.22,54,54,54h54v-54c0-29.78-24.22-54-54-54Z"/></g></svg>