<?xml version="1.0" encoding="UTF-8" standalone="no"?>
<!-- Created with Inkscape (http://www.inkscape.org/) -->

<svg
   version="1.1"
   id="svg1"
   width="1179.212"
   height="755.90533"
   viewBox="0 0 1179.212 755.90533"
   sodipodi:docname="Logo_HiLASE_WHITE.ai"
   xmlns:inkscape="http://www.inkscape.org/namespaces/inkscape"
   xmlns:sodipodi="http://sodipodi.sourceforge.net/DTD/sodipodi-0.dtd"
   xmlns="http://www.w3.org/2000/svg"
   xmlns:svg="http://www.w3.org/2000/svg">
  <defs
     id="defs1">
    <clipPath
       clipPathUnits="userSpaceOnUse"
       id="clipPath2">
      <path
         d="M 0,566.929 H 884.409 V 0 H 0 Z"
         transform="translate(-577.69981,-198.8491)"
         id="path2" />
    </clipPath>
    <clipPath
       clipPathUnits="userSpaceOnUse"
       id="clipPath4">
      <path
         d="M 0,566.929 H 884.409 V 0 H 0 Z"
         transform="translate(-450.69011,-299.9213)"
         id="path4" />
    </clipPath>
    <clipPath
       clipPathUnits="userSpaceOnUse"
       id="clipPath6">
      <path
         d="M 0,566.929 H 884.409 V 0 H 0 Z"
         transform="translate(-529.12462,-172.6157)"
         id="path6" />
    </clipPath>
    <clipPath
       clipPathUnits="userSpaceOnUse"
       id="clipPath8">
      <path
         d="M 0,566.929 H 884.409 V 0 H 0 Z"
         transform="translate(-780.99669,-295.60781)"
         id="path8" />
    </clipPath>
  </defs>
  <sodipodi:namedview
     id="namedview1"
     pagecolor="#ffffff"
     bordercolor="#000000"
     borderopacity="0.25"
     inkscape:showpageshadow="2"
     inkscape:pageopacity="0.0"
     inkscape:pagecheckerboard="0"
     inkscape:deskcolor="#d1d1d1">
    <inkscape:page
       x="0"
       y="0"
       inkscape:label="1"
       id="page1"
       width="1179.212"
       height="755.90533"
       margin="0 7.5186667 0 0"
       bleed="0" />
  </sodipodi:namedview>
  <g
     id="layer-MC0"
     inkscape:groupmode="layer"
     inkscape:label="Ebene 1">
    <path
       id="path1"
       d="m 0,0 h 82.453 c 5.188,0.473 9.572,0.961 13.146,2.732 3.565,1.774 5.486,5.244 5.759,10.41 0,3.747 -1.508,6.999 -4.508,9.734 -2.995,2.738 -6.816,5.029 -11.441,6.881 C 80.782,31.605 73.173,34.045 62.57,37.07 51.968,40.092 46.282,41.71 45.525,41.922 30.053,46.976 18.679,52.714 11.402,59.125 4.133,65.539 0.327,74.461 0,85.876 c 0,15.276 5.384,25.976 16.148,32.106 10.774,6.125 23.561,9.187 38.384,9.187 h 68.736 V 100.266 H 48.855 c -5.844,0 -10.343,-1.226 -13.512,-3.675 -3.168,-2.452 -4.745,-5.814 -4.745,-10.09 0.323,-3.339 2.013,-6.258 5.066,-8.76 3.059,-2.502 6.983,-4.628 11.77,-6.37 4.786,-1.756 9.802,-3.24 15.052,-4.46 5.247,-1.223 10.687,-2.496 16.314,-3.8 18.444,-5.05 31.807,-11.533 40.086,-19.431 8.277,-7.899 12.41,-17.869 12.41,-29.916 -1.942,-26.701 -19.229,-40.042 -51.85,-40.042 L 0,-26.278 V 0"
       style="fill:#ffffff;fill-opacity:1;fill-rule:nonzero;stroke:none"
       transform="matrix(1.3333333,0,0,-1.3333333,770.2664,490.7732)"
       clip-path="url(#clipPath2)" />
    <path
       id="path3"
       d="m 0,0 c -26.947,0 -48.871,-21.924 -48.871,-48.871 0,-26.947 21.924,-48.87 48.871,-48.87 h 48.87 v 48.837 C 48.87,-21.924 26.947,0 0,0"
       style="fill:#ffffff;fill-opacity:1;fill-rule:evenodd;stroke:none"
       transform="matrix(1.3333333,0,0,-1.3333333,600.92013,356.01027)"
       clip-path="url(#clipPath4)" />
    <path
       id="path5"
       d="m 0,0 h -78.435 c -43.316,0 -78.434,35.118 -78.434,78.435 0,43.319 35.118,78.434 78.434,78.434 C -35.116,156.869 0,121.754 0,78.435 V 78.401 Z M -187.727,-0.045 H -216.94 V 224.5 h 29.213 z m -75.341,176.004 c -3.218,-3.044 -7.13,-4.565 -11.727,-4.565 -4.92,0 -9.208,1.611 -12.858,4.835 -3.651,3.227 -5.478,7.494 -5.478,12.8 0.327,4.577 2.192,8.44 5.596,11.589 3.414,3.144 7.412,4.721 12.012,4.721 4.596,0 8.627,-1.615 12.093,-4.839 3.457,-3.224 5.191,-7.285 5.191,-12.171 0,-5.203 -1.609,-9.33 -4.829,-12.37 m 1.826,-176.004 h -29.212 V 153.72 h 29.212 z m -74.729,0 h -29.947 v 90.024 c 0,8.596 -1.513,15.844 -4.543,21.738 -3.031,5.891 -7.292,10.31 -12.778,13.258 -5.496,2.943 -11.782,4.419 -18.871,4.419 -14.173,0 -24.536,-4.17 -31.077,-12.514 -6.548,-8.343 -9.822,-17.959 -9.822,-28.858 V -0.045 h -28.558 V 224.5 h 28.558 v -83.296 c 6.545,5.212 13.322,9.033 20.328,11.458 7.008,2.424 15.187,3.638 24.547,3.638 11.577,0 22.059,-2.229 31.445,-6.688 9.385,-4.46 16.851,-11.315 22.4,-20.57 5.542,-9.255 8.318,-20.559 8.318,-33.905 z m 90.317,394.358 c -156.13,0 -283.471,-127.34 -283.471,-283.467 0,-156.127 127.341,-283.461 283.471,-283.461 156.121,0 283.465,127.334 283.465,283.461 0,156.127 -127.344,283.467 -283.465,283.467"
       style="fill:#ffffff;fill-opacity:1;fill-rule:evenodd;stroke:none"
       transform="matrix(1.3333333,0,0,-1.3333333,705.49947,525.75107)"
       clip-path="url(#clipPath6)" />
    <path
       id="path7"
       d="M 0,0 C 20.09,9.368 43.26,4.217 57.703,-11.084 L -28.6,-51.328 C -31.037,-30.428 -20.09,-9.367 0,0 M 66.517,-67.006 C 61.569,-77.425 53.14,-85.958 42.415,-90.959 c -21.288,-9.927 -46.019,-3.538 -60.174,13.946 l 115.459,53.839 0.072,0.022 c -1.132,3.868 -2.575,7.695 -4.291,11.375 C 74.897,28.075 27.358,45.378 -12.494,26.795 -52.347,8.211 -69.65,-39.328 -51.066,-79.181 c 18.583,-39.853 66.123,-57.156 105.975,-38.572 17.112,7.979 30.547,21.614 38.396,38.256 z"
       style="fill:#ffffff;fill-opacity:1;fill-rule:nonzero;stroke:none"
       transform="matrix(1.3333333,0,0,-1.3333333,1041.3289,361.7616)"
       clip-path="url(#clipPath8)" />
  </g>
</svg>
